<svg width="112px" height="27px" viewBox="30 15 112 27" version="1.1" xmlns="http://www.w3.org/2000/svg" xmlns:xlink="http://www.w3.org/1999/xlink">
    <!-- Generator: Sketch 39 (31667) - http://www.bohemiancoding.com/sketch -->
    <desc>Created with Sketch.</desc>
    <defs></defs>
    <g id="GALVANIZE_logo_4C" stroke="none" stroke-width="1" fill="none" fill-rule="evenodd" transform="translate(30.000000, 15.000000)">
        <path d="M6.00167539,17.6568261 C7.45708901,17.6568261 8.40586387,17.0469783 8.56418848,14.2072826 L3.41336126,14.2072826 C3.58048168,17.037587 4.57264921,17.6568261 6.00167539,17.6568261" id="Fill-1" fill="#9E9F9E"></path>
        <path d="M5.38596859,12.8578696 C5.80758115,12.4364348 5.80758115,11.7538043 5.38596859,11.3311957 C4.96494241,10.9115217 4.28297382,10.9115217 3.86136126,11.3311957 C3.48196859,11.7127174 3.44502618,12.3055435 3.75053403,12.7275652 L3.51656545,13.2018261 L3.99095288,12.9682174 C4.41197906,13.2751957 5.00598953,13.2388043 5.38596859,12.8578696" id="Fill-2" fill="#9E9F9E"></path>
        <path d="M2.81465969,9.85558696 C2.51853403,9.55976087 2.0394555,9.55976087 1.74332984,9.85558696 C1.44779058,10.152587 1.44779058,10.6327174 1.74332984,10.9297174 C2.01013613,11.1956087 2.4264712,11.2208478 2.72201047,11.0066087 L3.05449215,11.1727174 L2.89089005,10.8369783 C3.10726702,10.5399783 3.08146597,10.1226522 2.81465969,9.85558696" id="Fill-3" fill="#9E9F9E"></path>
        <path d="M4.19149738,8.23147826 C4.37972775,8.0418913 4.37972775,7.73491304 4.19149738,7.54473913 C4.00150785,7.3575 3.696,7.3575 3.50718325,7.54473913 C3.3365445,7.71671739 3.32071204,7.9826087 3.45675393,8.1716087 L3.35179058,8.3835 L3.5652356,8.28019565 C3.75463874,8.41813043 4.01968586,8.40228261 4.19149738,8.23147826" id="Fill-4" fill="#9E9F9E"></path>
        <path d="M9.48833508,6.44595652 L9.48833508,8.09002174 C9.15057592,7.65215217 8.80284817,7.32463043 8.44163351,7.06636957 L7.23250262,8.27726087 C9.14881675,8.91117391 9.45960209,11.1075652 9.45960209,13.3086522 C9.45960209,15.9165 9.03329843,18.5261087 6.00167539,18.5261087 C2.97122513,18.5261087 2.51736126,15.9165 2.51736126,13.3086522 C2.51736126,13.203 2.51970681,13.0985217 2.52087958,12.9922826 L0.548272251,14.9685652 C0.699560209,16.6008913 1.13583246,18.0765 2.17667016,19.1206957 C2.91434555,19.859087 4.13227225,20.3691522 5.54898429,20.3691522 C7.05013613,20.3691522 8.3255288,20.0011304 9.45960209,18.5542826 L9.45960209,20.7383478 C9.45960209,23.1208043 8.3255288,25.0190217 5.63401047,25.0190217 C4.01909948,25.0190217 3.31191623,24.5388913 2.29101571,23.6308696 L0.961089005,24.9345 C2.43233508,26.2663043 3.59396859,26.8063043 5.69089005,26.8063043 C9.34584293,26.8063043 11.4978848,24.2818043 11.4978848,20.8234565 L11.4978848,6.44595652 L9.48833508,6.44595652" id="Fill-5" fill="#EA882C"></path>
        <path d="M24.4171728,14.0218043 L20.5335288,14.0218043 C18.4500942,14.0218043 17.4362304,14.8676087 17.4362304,16.4729348 C17.4362304,18.0800217 18.4213613,18.8401304 20.6167958,18.8401304 C21.8001257,18.8401304 22.8409634,18.7561957 23.7135079,17.9103913 C24.1925864,17.4596087 24.4171728,16.6695652 24.4171728,15.5156087 L24.4171728,14.0218043 L24.4171728,14.0218043 Z M24.4171728,20.4184565 L24.4171728,19.0931087 C23.2913089,20.2212391 22.277445,20.586913 20.4197696,20.586913 C18.5063874,20.586913 17.3805236,20.2212391 16.5073927,19.319087 C15.8318743,18.642913 15.466555,17.6004783 15.466555,16.5011087 C15.466555,14.0787391 17.1547644,12.500413 20.2514764,12.500413 L24.4171728,12.500413 L24.4171728,11.1762391 C24.4171728,9.14713043 23.4044817,8.13345652 20.8701152,8.13345652 C19.0968796,8.13345652 18.1967749,8.55547826 17.3805236,9.71119565 L16.0001675,8.44336957 C17.2392042,6.83745652 18.6471204,6.38667391 20.8988482,6.38667391 C24.614199,6.38667391 26.4443141,7.99141304 26.4443141,11.0066087 L26.4443141,20.4184565 L24.4171728,20.4184565 L24.4171728,20.4184565 Z" id="Fill-6" fill="#EA882C"></path>
        <path d="M34.5734031,20.4184565 C32.1522094,20.4184565 31.0550785,18.8401304 31.0550785,16.727087 L31.0550785,0.356282609 L33.0822199,0.356282609 L33.0822199,16.6425652 C33.0822199,17.994913 33.5325654,18.6716739 34.9398953,18.6716739 L36.0370262,18.6716739 L36.0370262,20.4184565 L34.5734031,20.4184565" id="Fill-7" fill="#EA882C"></path>
        <polyline id="Fill-8" fill="#EA882C" points="44.5144293 20.4184565 42.7142199 20.4184565 37.6472461 6.55513043 39.8415079 6.55513043 43.6143246 17.685587 47.4141152 6.55513043 49.6107225 6.55513043 44.5144293 20.4184565"></polyline>
        <path d="M60.3175707,14.0218043 L56.4333403,14.0218043 C54.3499058,14.0218043 53.3366283,14.8676087 53.3366283,16.4729348 C53.3366283,18.0800217 54.3217592,18.8401304 56.5171937,18.8401304 C57.6993508,18.8401304 58.7419476,18.7561957 59.6144921,17.9103913 C60.0929843,17.4596087 60.3175707,16.6695652 60.3175707,15.5156087 L60.3175707,14.0218043 L60.3175707,14.0218043 Z M60.3175707,20.4184565 L60.3175707,19.0931087 C59.190534,20.2212391 58.1784293,20.586913 56.3201675,20.586913 C54.406199,20.586913 53.2803351,20.2212391 52.4077906,19.319087 C51.7322723,18.642913 51.3657801,17.6004783 51.3657801,16.5011087 C51.3657801,14.0787391 53.0545759,12.500413 56.1518743,12.500413 L60.3175707,12.500413 L60.3175707,11.1762391 C60.3175707,9.14713043 59.305466,8.13345652 56.7699267,8.13345652 C54.9972775,8.13345652 54.0971728,8.55547826 53.2803351,9.71119565 L51.9005654,8.44336957 C53.1396021,6.83745652 54.5469319,6.38667391 56.7986597,6.38667391 C60.5145969,6.38667391 62.344712,7.99141304 62.344712,11.0066087 L62.344712,20.4184565 L60.3175707,20.4184565 L60.3175707,20.4184565 Z" id="Fill-9" fill="#EA882C"></path>
        <path d="M75.5478115,20.4184565 L75.5478115,11.88 C75.5478115,9.42945652 74.2237487,8.18863043 72.1414869,8.18863043 C70.0598115,8.18863043 68.7081885,9.45645652 68.7081885,11.88 L68.7081885,20.4184565 L66.6810471,20.4184565 L66.6810471,6.55513043 L68.7081885,6.55513043 L68.7081885,8.07652174 C69.6933194,6.94956522 71.044356,6.38667391 72.5906597,6.38667391 C74.0841885,6.38667391 75.2933194,6.83745652 76.1388901,7.68208696 C77.1234346,8.64058696 77.5749529,9.936 77.5749529,11.543087 L77.5749529,20.4184565 L75.5478115,20.4184565" id="Fill-10" fill="#EA882C"></path>
        <polygon id="Fill-11" fill="#EA882C" points="81.9863455 6.55513043 84.0134869 6.55513043 84.0134869 20.4184565 81.9863455 20.4184565"></polygon>
        <polyline id="Fill-12" fill="#EA882C" points="87.9809843 20.4184565 87.9809843 18.6716739 95.6931518 8.35826087 88.4025969 8.35826087 88.4025969 6.55513043 98.0299058 6.55513043 98.0299058 8.27373913 90.2878325 18.6141522 98.0299058 18.6141522 98.0299058 20.4184565 87.9809843 20.4184565"></polyline>
        <path d="M109.530723,10.1901522 C108.994764,8.92232609 107.755728,8.10528261 106.292105,8.10528261 C104.827895,8.10528261 103.591204,8.92232609 103.055246,10.1901522 C102.74622,10.9514348 102.688754,11.3734565 102.633634,12.500413 L109.952335,12.500413 C109.894869,11.3734565 109.839749,10.9514348 109.530723,10.1901522 L109.530723,10.1901522 Z M102.633634,14.0218043 C102.633634,17.064 104.070283,18.8113696 106.715476,18.8113696 C108.319246,18.8113696 109.249257,18.3318261 110.346387,17.2336304 L111.724984,18.4456957 C110.318827,19.8543913 109.022325,20.586913 106.658597,20.586913 C103.000126,20.586913 100.606492,18.3893478 100.606492,13.4876739 C100.606492,9.00743478 102.77378,6.38667391 106.292105,6.38667391 C109.867309,6.38667391 111.979476,8.97867391 111.979476,13.0920652 L111.979476,14.0218043 L102.633634,14.0218043 L102.633634,14.0218043 Z" id="Fill-13" fill="#EA882C"></path>
    </g>
</svg>
